<svg width="28" height="28" viewBox="0 0 28 28" fill="none" xmlns="http://www.w3.org/2000/svg">
<path d="M14 14C15.3845 14 16.7378 13.5895 17.889 12.8203C19.0401 12.0511 19.9373 10.9579 20.4672 9.67879C20.997 8.3997 21.1356 6.99224 20.8655 5.63437C20.5954 4.2765 19.9287 3.02922 18.9497 2.05026C17.9708 1.07129 16.7235 0.404603 15.3656 0.134506C14.0078 -0.13559 12.6003 0.003033 11.3212 0.532846C10.0421 1.06266 8.94888 1.95987 8.17971 3.11101C7.41054 4.26216 7 5.61553 7 7C7.00185 8.85595 7.73995 10.6354 9.0523 11.9477C10.3647 13.2601 12.1441 13.9982 14 14ZM14 2.33334C14.923 2.33334 15.8252 2.60703 16.5927 3.11981C17.3601 3.63259 17.9582 4.36143 18.3114 5.21415C18.6646 6.06687 18.7571 7.00518 18.577 7.91043C18.3969 8.81567 17.9525 9.64719 17.2998 10.2998C16.6472 10.9525 15.8157 11.3969 14.9104 11.577C14.0052 11.7571 13.0669 11.6647 12.2141 11.3114C11.3614 10.9582 10.6326 10.3601 10.1198 9.59266C9.60703 8.82524 9.33333 7.92298 9.33333 7C9.33333 5.76233 9.825 4.57534 10.7002 3.70017C11.5753 2.825 12.7623 2.33334 14 2.33334Z" fill="black"/>
<path d="M14 15C10.5534 15.0032 7.24898 16.142 4.81183 18.1668C2.37469 20.1915 1.00382 22.9366 1 25.8C1 26.1183 1.15218 26.4235 1.42307 26.6485C1.69395 26.8736 2.06135 27 2.44444 27C2.82753 27 3.19493 26.8736 3.46582 26.6485C3.73671 26.4235 3.88889 26.1183 3.88889 25.8C3.88889 23.5722 4.95416 21.4356 6.85036 19.8603C8.74657 18.285 11.3184 17.4 14 17.4C16.6816 17.4 19.2534 18.285 21.1496 19.8603C23.0458 21.4356 24.1111 23.5722 24.1111 25.8C24.1111 26.1183 24.2633 26.4235 24.5342 26.6485C24.8051 26.8736 25.1725 27 25.5556 27C25.9386 27 26.306 26.8736 26.5769 26.6485C26.8478 26.4235 27 26.1183 27 25.8C26.9962 22.9366 25.6253 20.1915 23.1882 18.1668C20.751 16.142 17.4466 15.0032 14 15Z" fill="black"/>
</svg>
